<svg viewBox="0 0 512 512" xmlns="http://www.w3.org/2000/svg" role="img" aria-label="Critters">
  <defs><linearGradient id="lbg" x1="0" y1="0" x2="0" y2="1"><stop offset="0" stop-color="#1b2447"/><stop offset="1" stop-color="#0a0f1f"/></linearGradient></defs>
  <rect width="512" height="512" rx="112" fill="url(#lbg)"/>
  <svg x="16" y="16" viewBox="0 0 100 100" width="480" height="480" xmlns="http://www.w3.org/2000/svg" role="img" aria-label="Tejedor">
  <defs>
    <linearGradient id="cglogoagu" x1="0" y1="0" x2="0" y2="1"><stop offset="0" stop-color="#1f6888"/><stop offset="1" stop-color="#064c71"/></linearGradient>
    <linearGradient id="lglogoagu" x1="0" y1="0" x2="0" y2="1"><stop offset="0" stop-color="#1a5772"/><stop offset="1" stop-color="#123e52"/></linearGradient>
    <radialGradient id="cglogoagus" cx="0.4" cy="0.3" r="0.7"><stop offset="0" stop-color="#3cbde8" stop-opacity="0.28"/><stop offset="0.6" stop-color="#3cbde8" stop-opacity="0"/></radialGradient>
  </defs>
  
  <g transform="translate(50 50) scale(1.031) translate(-50 -28.28)"><path d="M43.5,18.0L34.1,1.5L31.0,3.0L38.5,20.5Z" fill="url(#lglogoagu)" stroke="#042d43" stroke-width="0.9" stroke-linejoin="miter"/><path d="M32.9,0.6C32.1,0.5 31.2,0.4 30.4,0.3C29.6,0.4 28.9,0.4 28.1,0.4C27.3,0.5 26.6,0.6 25.9,0.7C25.2,0.9 24.5,1.2 23.8,1.4C23.2,1.7 22.6,2.0 22.0,2.3C21.5,2.8 20.9,3.2 20.4,3.6C19.9,4.1 19.4,4.6 19.0,5.1C18.6,5.7 18.1,6.3 17.7,6.9C17.4,7.5 17.1,8.2 16.7,8.9C16.4,9.6 16.2,10.4 15.9,11.1L17.0,11.5C17.4,10.8 17.7,10.2 18.0,9.5C18.4,8.9 18.7,8.3 19.1,7.8C19.5,7.3 19.9,6.8 20.3,6.3C20.8,6.0 21.2,5.6 21.7,5.2C22.2,4.9 22.7,4.6 23.1,4.3C23.7,4.2 24.2,4.0 24.7,3.8C25.3,3.6 25.8,3.5 26.4,3.4C27.0,3.4 27.6,3.4 28.2,3.3C28.8,3.4 29.5,3.5 30.1,3.5C30.8,3.7 31.5,3.8 32.2,3.9Z" fill="url(#lglogoagu)" stroke="#042d43" stroke-width="0.9" stroke-linejoin="round"/><line x1="16.5" y1="11.3" x2="15.6" y2="13.8" stroke="#042d43" stroke-width="1" stroke-linecap="round"/><path d="M16.5,9.4C17.6,9.4 18.5,10.3 18.5,11.3C18.5,12.5 16.7,13.4 16.5,13.8C16.2,13.4 14.5,12.5 14.5,11.3C14.5,10.3 15.4,9.4 16.5,9.4Z" fill="#38bdf8" stroke="#042d43" stroke-width="0.6"/><circle cx="17.0" cy="10.7" r="0.6" fill="#fff" opacity=".5"/><path d="M61.5,20.3L68.8,2.8L65.7,1.3L56.5,17.8Z" fill="url(#lglogoagu)" stroke="#042d43" stroke-width="0.9" stroke-linejoin="miter"/><path d="M67.6,3.7C68.3,3.6 69.0,3.5 69.7,3.3C70.3,3.3 71.0,3.2 71.6,3.2C72.2,3.2 72.8,3.2 73.4,3.2C73.9,3.3 74.5,3.5 75.1,3.6C75.6,3.8 76.1,4.0 76.6,4.1C77.1,4.4 77.5,4.7 78.0,5.0C78.5,5.4 78.9,5.7 79.3,6.1C79.7,6.6 80.2,7.1 80.6,7.5C80.9,8.1 81.3,8.7 81.6,9.3C82.0,9.9 82.3,10.6 82.6,11.3L83.7,10.9C83.5,10.2 83.2,9.4 82.9,8.7C82.6,8.0 82.3,7.3 81.9,6.7C81.5,6.1 81.1,5.5 80.7,4.9C80.3,4.4 79.8,3.9 79.3,3.4C78.8,3.0 78.3,2.6 77.7,2.1C77.1,1.8 76.5,1.5 75.9,1.2C75.2,1.0 74.6,0.8 73.9,0.5C73.2,0.4 72.4,0.3 71.7,0.2C70.9,0.2 70.2,0.2 69.4,0.2C68.6,0.2 67.7,0.3 66.9,0.4Z" fill="url(#lglogoagu)" stroke="#042d43" stroke-width="0.9" stroke-linejoin="round"/><line x1="83.2" y1="11.1" x2="84.0" y2="13.6" stroke="#042d43" stroke-width="1" stroke-linecap="round"/><path d="M83.2,9.2C84.3,9.2 85.2,10.1 85.2,11.1C85.2,12.3 83.4,13.2 83.2,13.6C82.9,13.2 81.2,12.3 81.2,11.1C81.2,10.1 82.1,9.2 83.2,9.2Z" fill="#38bdf8" stroke="#042d43" stroke-width="0.6"/><circle cx="82.7" cy="10.5" r="0.6" fill="#fff" opacity=".5"/><path d="M43.4,25.5L35.0,13.5L32.0,15.2L38.6,28.3Z" fill="url(#lglogoagu)" stroke="#042d43" stroke-width="0.9" stroke-linejoin="miter"/><path d="M33.4,12.7C32.5,12.8 31.6,12.9 30.8,13.1C30.0,13.3 29.2,13.5 28.4,13.7C27.6,14.0 26.9,14.3 26.2,14.7C25.5,15.1 24.9,15.4 24.2,15.8C23.6,16.3 23.1,16.8 22.5,17.3C22.0,17.8 21.5,18.4 21.0,18.9C20.6,19.6 20.2,20.2 19.8,20.8C19.5,21.5 19.2,22.2 18.9,22.9C18.6,23.7 18.4,24.5 18.2,25.2C18.0,26.1 17.8,26.9 17.7,27.7L18.9,27.9C19.1,27.2 19.3,26.4 19.5,25.6C19.8,25.0 20.1,24.3 20.4,23.6C20.7,23.0 21.1,22.4 21.4,21.8C21.8,21.3 22.2,20.8 22.6,20.3C23.1,19.8 23.6,19.4 24.0,19.0C24.5,18.7 25.1,18.3 25.6,18.0C26.1,17.7 26.7,17.4 27.3,17.2C27.9,17.0 28.6,16.8 29.2,16.6C29.9,16.4 30.6,16.3 31.3,16.2C32.1,16.2 32.8,16.1 33.6,16.1Z" fill="url(#lglogoagu)" stroke="#042d43" stroke-width="0.9" stroke-linejoin="round"/><line x1="18.3" y1="27.8" x2="17.8" y2="30.4" stroke="#042d43" stroke-width="1" stroke-linecap="round"/><path d="M18.3,25.9C19.4,25.9 20.3,26.8 20.3,27.9C20.3,29.0 18.5,29.9 18.3,30.3C18.0,29.9 16.3,29.0 16.3,27.9C16.3,26.8 17.2,25.9 18.3,25.9Z" fill="#38bdf8" stroke="#042d43" stroke-width="0.6"/><circle cx="18.8" cy="27.2" r="0.6" fill="#fff" opacity=".5"/><path d="M61.4,28.1L67.8,15.0L64.8,13.3L56.6,25.3Z" fill="url(#lglogoagu)" stroke="#042d43" stroke-width="0.9" stroke-linejoin="miter"/><path d="M66.2,15.9C67.0,15.9 67.7,16.0 68.5,16.0C69.2,16.1 69.9,16.2 70.6,16.4C71.2,16.6 71.8,16.8 72.4,16.9C73.0,17.2 73.6,17.5 74.1,17.7C74.7,18.1 75.2,18.4 75.7,18.8C76.1,19.2 76.6,19.6 77.0,20.0C77.4,20.6 77.8,21.1 78.2,21.6C78.6,22.2 78.9,22.8 79.3,23.3C79.5,24.0 79.8,24.7 80.1,25.4C80.3,26.2 80.5,26.9 80.7,27.7L81.9,27.5C81.8,26.7 81.6,25.8 81.5,25.0C81.2,24.2 81.0,23.5 80.8,22.7C80.5,22.0 80.2,21.3 79.8,20.6C79.4,20.0 79.1,19.4 78.7,18.7C78.2,18.2 77.7,17.6 77.2,17.1C76.6,16.6 76.1,16.1 75.5,15.6C74.9,15.2 74.2,14.8 73.6,14.5C72.9,14.1 72.1,13.8 71.4,13.5C70.6,13.3 69.8,13.1 69.0,12.9C68.1,12.7 67.3,12.6 66.4,12.5Z" fill="url(#lglogoagu)" stroke="#042d43" stroke-width="0.9" stroke-linejoin="round"/><line x1="81.3" y1="27.6" x2="81.8" y2="30.2" stroke="#042d43" stroke-width="1" stroke-linecap="round"/><path d="M81.3,25.7C82.4,25.7 83.3,26.6 83.3,27.6C83.3,28.8 81.5,29.7 81.3,30.1C81.1,29.7 79.3,28.8 79.3,27.6C79.3,26.6 80.2,25.7 81.3,25.7Z" fill="#38bdf8" stroke="#042d43" stroke-width="0.6"/><circle cx="80.8" cy="27.0" r="0.6" fill="#fff" opacity=".5"/><path d="M42.8,32.8L33.0,25.7L30.7,28.2L39.2,37.0Z" fill="url(#lglogoagu)" stroke="#042d43" stroke-width="0.9" stroke-linejoin="miter"/><path d="M31.5,25.3C30.5,25.6 29.6,25.9 28.6,26.2C27.8,26.6 26.9,27.1 26.0,27.5C25.3,27.9 24.5,28.4 23.7,28.9C23.0,29.4 22.3,30.0 21.6,30.6C21.0,31.2 20.4,31.8 19.8,32.4C19.2,33.1 18.7,33.8 18.2,34.5C17.8,35.3 17.3,36.1 16.9,36.8C16.5,37.7 16.2,38.5 15.9,39.3C15.6,40.2 15.3,41.1 15.1,42.0C14.9,42.9 14.7,43.9 14.6,44.8L15.7,45.0C16.0,44.1 16.2,43.2 16.4,42.3C16.8,41.5 17.1,40.7 17.4,39.9C17.8,39.2 18.1,38.4 18.5,37.7C19.0,37.1 19.4,36.4 19.9,35.7C20.4,35.2 20.9,34.6 21.4,34.0C22.0,33.5 22.6,33.0 23.2,32.5C23.9,32.1 24.5,31.6 25.2,31.2C25.9,30.8 26.6,30.5 27.3,30.1C28.1,29.8 28.9,29.5 29.7,29.2C30.6,29.0 31.4,28.8 32.3,28.6Z" fill="url(#lglogoagu)" stroke="#042d43" stroke-width="0.9" stroke-linejoin="round"/><line x1="15.1" y1="44.9" x2="14.7" y2="47.5" stroke="#042d43" stroke-width="1" stroke-linecap="round"/><path d="M15.1,43.0C16.2,43.0 17.1,43.9 17.1,44.9C17.1,46.1 15.4,47.0 15.1,47.4C14.9,47.0 13.1,46.1 13.1,44.9C13.1,43.9 14.0,43.0 15.1,43.0Z" fill="#38bdf8" stroke="#042d43" stroke-width="0.6"/><circle cx="15.6" cy="44.3" r="0.6" fill="#fff" opacity=".5"/><path d="M60.8,37.5L69.7,28.7L67.5,26.1L57.2,33.2Z" fill="url(#lglogoagu)" stroke="#042d43" stroke-width="0.9" stroke-linejoin="miter"/><path d="M68.2,29.0C69.1,29.3 69.9,29.5 70.8,29.7C71.6,30.0 72.4,30.3 73.2,30.6C73.9,30.9 74.7,31.3 75.4,31.7C76.1,32.1 76.7,32.5 77.4,33.0C78.0,33.5 78.6,34.0 79.2,34.5C79.8,35.1 80.3,35.7 80.8,36.2C81.3,36.9 81.8,37.6 82.2,38.2C82.6,39.0 83.0,39.7 83.4,40.4C83.8,41.3 84.1,42.1 84.4,42.9C84.7,43.8 84.9,44.7 85.2,45.6L86.4,45.4C86.2,44.4 86.0,43.4 85.8,42.5C85.5,41.6 85.2,40.7 85.0,39.8C84.6,39.0 84.2,38.1 83.9,37.3C83.4,36.5 83.0,35.8 82.5,35.0C82.0,34.3 81.4,33.6 80.9,32.9C80.3,32.3 79.6,31.6 79.0,31.0C78.3,30.5 77.6,29.9 76.9,29.3C76.1,28.9 75.3,28.4 74.5,27.9C73.6,27.5 72.7,27.1 71.9,26.7C70.9,26.4 70.0,26.1 69.0,25.7Z" fill="url(#lglogoagu)" stroke="#042d43" stroke-width="0.9" stroke-linejoin="round"/><line x1="85.8" y1="45.5" x2="86.3" y2="48.0" stroke="#042d43" stroke-width="1" stroke-linecap="round"/><path d="M85.8,43.6C86.9,43.6 87.8,44.4 87.8,45.5C87.8,46.6 86.0,47.6 85.8,48.0C85.6,47.6 83.8,46.6 83.8,45.5C83.8,44.4 84.7,43.6 85.8,43.6Z" fill="#38bdf8" stroke="#042d43" stroke-width="0.6"/><circle cx="85.3" cy="44.9" r="0.6" fill="#fff" opacity=".5"/><path d="M50.0,14.0L62.4,21.8L62.4,32.6L50.0,41.0L37.6,32.6L37.6,21.8Z" fill="url(#cglogoagu)" stroke="#042d43" stroke-width="1.6" stroke-linejoin="miter"/><path d="M50.0,14.0L62.4,21.8L62.4,32.6L50.0,41.0L37.6,32.6L37.6,21.8Z" fill="url(#cglogoagus)" stroke="none"/><circle cx="45.0" cy="20.0" r="3.4" fill="#05040c"/><circle cx="44.0" cy="18.9" r="1.0" fill="#38bdf8"/><circle cx="55.0" cy="20.0" r="3.4" fill="#05040c"/><circle cx="54.0" cy="18.9" r="1.0" fill="#38bdf8"/></g>
</svg>
</svg>
