<?xml version="1.0" encoding="UTF-8" standalone="no"?>
<!-- Created with Inkscape (http://www.inkscape.org/) -->

<svg
   width="92.672035mm"
   height="93.397263mm"
   viewBox="0 0 92.672035 93.397263"
   version="1.1"
   id="svg5"
   xml:space="preserve"
   inkscape:version="1.2.2 (b0a8486541, 2022-12-01)"
   sodipodi:docname="dotrinoImago.svg"
   xmlns:inkscape="http://www.inkscape.org/namespaces/inkscape"
   xmlns:sodipodi="http://sodipodi.sourceforge.net/DTD/sodipodi-0.dtd"
   xmlns="http://www.w3.org/2000/svg"
   xmlns:svg="http://www.w3.org/2000/svg"><sodipodi:namedview
     id="namedview7"
     pagecolor="#ffffff"
     bordercolor="#666666"
     borderopacity="1.0"
     inkscape:showpageshadow="2"
     inkscape:pageopacity="0.0"
     inkscape:pagecheckerboard="0"
     inkscape:deskcolor="#d1d1d1"
     inkscape:document-units="mm"
     showgrid="false"
     inkscape:zoom="0.7367354"
     inkscape:cx="359.01627"
     inkscape:cy="187.31284"
     inkscape:window-width="1895"
     inkscape:window-height="1007"
     inkscape:window-x="25"
     inkscape:window-y="25"
     inkscape:window-maximized="1"
     inkscape:current-layer="layer1" /><defs
     id="defs2" /><g
     inkscape:label="Layer 1"
     inkscape:groupmode="layer"
     id="layer1"
     transform="translate(-32.552195,-67.934565)"><path
       id="path318-8"
       style="fill:#053674;fill-opacity:1;stroke-width:0.329785"
       d="m 44.453042,71.835832 -0.977117,2.119146 c -4.347644,9.426997 -2.231231,19.257329 5.522626,25.649874 0.913927,0.753468 2.032827,1.679118 2.486271,2.056648 l 0.824474,0.68597 -1.319153,-0.21126 c -1.947114,-0.31252 -5.993101,-2.02959 -8.19956,-3.479495 -1.06363,-0.698934 -1.969055,-1.270839 -2.01156,-1.270839 -0.164552,0 0.534065,3.868314 0.958432,5.306834 1.897985,6.43387 6.944549,10.47086 14.343109,11.47296 1.348823,0.18263 2.573142,0.25743 2.720734,0.16618 0.147551,-0.0912 0.268592,-0.0409 0.268592,0.11206 0,0.69162 -4.863037,2.72911 -6.513903,2.72911 -0.736954,0 -0.68461,0.0999 0.62865,1.19934 2.796939,2.34168 6.132426,3.26074 10.882937,2.99898 1.785735,-0.0985 3.246974,-0.0611 3.246974,0.0824 0,0.73206 -3.015891,4.60798 -5.702346,7.32808 -2.898217,2.93449 -5.951217,5.38177 -12.08356,9.6881 -6.409837,4.5012 -10.24591,9.42157 -10.24591,13.14119 0,1.67825 1.132189,4.46923 1.919458,4.73165 0.193616,0.0646 0.522748,-0.52302 0.731724,-1.30561 1.173492,-4.39469 4.129864,-8.96247 8.658164,-13.37757 2.880443,-2.80846 3.932123,-3.524 2.423149,-1.64893 -4.014992,4.98901 -5.809255,8.43211 -6.06689,11.64169 -0.216937,2.70271 0.496349,4.70641 2.164852,6.08172 0.661633,0.54536 1.296466,0.99192 1.411255,0.99192 0.114817,0 0.444336,-1.74373 0.732358,-3.87498 1.062678,-7.86325 3.950863,-13.9301 9.662331,-20.29858 6.486758,-7.23291 7.770858,-8.78785 9.100044,-11.01755 0.779569,-1.30772 1.566092,-2.43811 1.747467,-2.5114 0.719428,-0.29047 3.394015,0.80961 4.711691,1.93749 2.568961,2.19893 4.017531,5.5973 4.023769,9.43949 -3.011296,5.94385 -2.753234,5.32396 -3.683624,6.81719 -0.126271,0.35921 -0.851895,2.38979 -1.196608,3.99074 -0.344713,1.60095 -0.3321,3.4164 0.752755,6.02081 0.700563,1.68196 2.005143,3.1041 3.013173,3.9587 1.008015,0.8546 2.668873,2.02386 4.355551,2.38775 1.686691,0.36389 3.89954,0.32317 6.116418,-1.50208 1.916629,-1.57807 2.992651,-4.62869 2.529575,-7.12557 -0.648744,-3.49779 -1.953462,-5.1246 -4.116796,-6.40898 -6.423111,-3.81344 -9.275913,1.85726 -9.125284,1.23261 l 2.304909,-3.75321 c 1.327957,-2.71656 2.685626,-6.03186 3.847279,-9.79762 2.218396,-10.28567 2.397521,-11.20087 2.615094,-13.35633 0.585553,-5.8008 -2.475575,-12.35087 -7.371221,-15.771758 C 77.769474,97.154421 76.3356,96.569172 68.303906,94.099531 62.538921,92.326878 60.67792,91.499644 56.818718,88.994937 51.061089,85.2581 47.278547,80.417365 45.2118,74.139761 Z m -0.305962,7.744832 c 0.136069,0.0028 0.864259,1.077858 1.618656,2.390939 1.795064,3.124456 4.275456,5.846198 7.520677,8.252372 4.154677,3.080517 8.13216,4.895301 16.666413,7.603753 8.971483,2.847242 12.80009,6.045502 14.346959,11.984372 0.833734,3.2009 0.616976,5.64091 -1.168414,13.13218 -0.389053,1.63243 -0.748325,3.01011 -0.798061,3.06146 -0.04968,0.0513 -0.484136,-0.71203 -0.965525,-1.69594 -1.075733,-2.19874 -3.271221,-4.27322 -5.750619,-5.43374 -1.655862,-0.77507 -2.251916,-0.8721 -5.169661,-0.84444 -1.813818,0.0172 -4.873179,0.14649 -6.798613,0.28728 -4.292774,0.31389 -5.420616,-0.0433 -3.39705,-1.07567 2.256291,-1.15108 5.645779,-4.89513 5.008628,-5.53228 -0.07452,-0.0745 -2.277226,-0.19384 -4.894625,-0.26538 -6.588783,-0.18019 -10.0221,-1.35037 -12.870016,-4.38641 -1.177219,-1.25495 -2.825118,-3.73715 -2.481122,-3.73715 0.09867,0 0.904459,0.28581 1.79062,0.63511 2.439156,0.96137 6.197645,1.38512 9.027262,1.01769 1.326909,-0.17231 2.587453,-0.31711 2.801231,-0.32335 0.464539,-0.0124 1.425427,-0.92231 1.425427,-1.35005 0,-0.1666 -1.361712,-0.98633 -3.026047,-1.8222 -3.772924,-1.894879 -5.913157,-3.464697 -8.25752,-6.05531 -3.420111,-3.779341 -4.87594,-7.6138 -4.87594,-12.843602 0,-1.651611 0.111367,-3.002132 0.24734,-2.999634 z m 54.686476,2.728462 c -0.697196,0.01104 -1.394764,0.08142 -2.085639,0.214481 -6.274112,1.208725 -10.253845,5.09343 -12.375985,12.081629 l -0.807721,2.661476 1.266975,1.358442 1.266975,1.357794 0.360059,-1.380992 c 1.863995,-7.143574 3.757854,-10.11732 7.670739,-12.043623 1.828819,-0.900319 2.475934,-1.044751 4.673685,-1.044751 2.156956,0 2.872056,0.153443 4.635696,0.995154 2.48094,1.184036 4.52895,3.351082 5.34871,5.659165 0.48592,1.368102 0.7397,1.65037 1.72688,1.924633 0.63633,0.176793 1.34232,0.322343 1.56904,0.323337 0.79096,0.0041 0.38574,0.50122 -0.885,1.086607 -0.70411,0.324358 -1.08528,1.247268 -1.20432,1.557495 -0.11896,0.310213 -0.63976,2.089351 -0.80016,4.447587 -0.75398,11.0857 -6.93334,21.53131 -10.858463,25.66403 -3.925126,4.13273 -3.253874,3.42592 -5.231914,4.94399 -1.978039,1.51806 -6.458233,4.79055 -6.565681,5.07068 -0.235719,0.6143 0.281178,0.48523 3.741018,-0.93719 4.517275,-1.85714 8.419741,-4.58523 11.83108,-8.26976 6.00759,-6.48875 9.03182,-14.24441 10.08618,-25.86822 l 0.90319,-3.889741 2.49386,-2.112756 c 1.65183,-0.912036 3.2632,-1.755209 3.58063,-1.874373 0.31742,-0.119233 0.57712,-0.315526 0.57712,-0.436056 0,-0.120475 -1.69572,-0.645349 -3.76807,-1.166483 -2.07235,-0.521147 -3.8903,-1.037354 -4.03987,-1.147176 -0.14959,-0.109849 -0.67915,-1.016489 -1.17681,-2.014775 -2.20338,-4.419956 -7.05185,-7.238395 -11.932204,-7.160604 z m 2.283384,8.588598 c -0.985,0.0041 -2.362169,0.718573 -2.79287,1.523326 -0.859913,1.606761 0.133447,4.123558 1.72815,4.37868 1.13901,0.182231 2.65481,-0.322094 3.29144,-1.094984 1.26377,-1.534297 0.21975,-4.248131 -1.83252,-4.76322 -0.12075,-0.03036 -0.25349,-0.04444 -0.3942,-0.04375 z M 82.722032,140.52559 c 1.654482,-0.0584 3.291479,0.48809 4.692053,1.78845 2.666403,2.47607 3.321867,6.34119 1.464054,8.63305 -1.857675,2.29199 -5.525263,2.14291 -8.191831,-0.33301 -2.6665,-2.47589 -3.322268,-6.34099 -1.464689,-8.63304 0.809225,-0.9983 2.128226,-1.40728 3.500413,-1.45545 z"
       sodipodi:nodetypes="ccscccssssssssssssssssssssssscscczszzssscccsssscccsssssssssssscsssscsssscsscccccssssscssszzcsscccssssssssssscsccsscc" /></g></svg>
