<?xml version="1.0" encoding="UTF-8" standalone="no"?>
<!-- Created with Inkscape (http://www.inkscape.org/) -->

<svg
   width="1024"
   height="1024"
   viewBox="0 0 270.93333 270.93333"
   version="1.1"
   id="svg5"
   xml:space="preserve"
   inkscape:version="1.2.2 (b0a8486541, 2022-12-01)"
   sodipodi:docname="dotrinoImagoWBG.svg"
   xmlns:inkscape="http://www.inkscape.org/namespaces/inkscape"
   xmlns:sodipodi="http://sodipodi.sourceforge.net/DTD/sodipodi-0.dtd"
   xmlns="http://www.w3.org/2000/svg"
   xmlns:svg="http://www.w3.org/2000/svg"><sodipodi:namedview
     id="namedview7"
     pagecolor="#ffffff"
     bordercolor="#666666"
     borderopacity="1.0"
     inkscape:showpageshadow="2"
     inkscape:pageopacity="0.0"
     inkscape:pagecheckerboard="0"
     inkscape:deskcolor="#d1d1d1"
     inkscape:document-units="mm"
     showgrid="false"
     inkscape:zoom="0.5209506"
     inkscape:cx="442.46038"
     inkscape:cy="468.37455"
     inkscape:window-width="1895"
     inkscape:window-height="1007"
     inkscape:window-x="25"
     inkscape:window-y="25"
     inkscape:window-maximized="1"
     inkscape:current-layer="layer1" /><defs
     id="defs2" /><g
     inkscape:label="Layer 1"
     inkscape:groupmode="layer"
     id="layer1"
     transform="translate(-32.552195,-67.934565)"><rect
       style="fill:#ffffff;stroke-width:8.7366;stroke-opacity:0.901961"
       id="rect7971"
       width="270.93332"
       height="270.93335"
       x="32.552197"
       y="67.934563"
       inkscape:export-filename="imagoWBG.png"
       inkscape:export-xdpi="96"
       inkscape:export-ydpi="96" /><path
       style="fill:#053674;fill-opacity:1;stroke-width:0.802231"
       d="m 175.28712,262.28966 c 4.02468,-0.14206 8.00682,1.18732 11.41383,4.35056 6.48627,6.02325 8.08073,15.42549 3.56145,21.00064 -4.51897,5.57546 -13.4407,5.21281 -19.92735,-0.81008 -6.48649,-6.02281 -8.0817,-15.425 -3.56298,-21.00062 1.96851,-2.42845 5.1771,-3.42333 8.51505,-3.5405 z"
       id="path8174" /><path
       style="fill:#053674;fill-opacity:1;stroke-width:0.802231"
       d="m 220.03434,141.56559 c -2.3961,0.01 -5.74618,1.74799 -6.7939,3.70561 -2.09183,3.9086 0.32461,10.03092 4.20387,10.65152 2.77075,0.44331 6.45806,-0.78352 8.00672,-2.66364 3.07423,-3.73231 0.53456,-10.33394 -4.45777,-11.58694 -0.29373,-0.0739 -0.61663,-0.10801 -0.95892,-0.10655 z"
       id="path8172" /><path
       style="fill:#053674;fill-opacity:1;stroke-width:0.802231"
       d="m 214.4798,120.67308 c -1.69598,0.0269 -3.39288,0.19806 -5.0735,0.52174 -15.26232,2.94034 -24.94336,12.39021 -30.10565,29.38962 l -1.96485,6.47427 3.08202,3.30452 3.08204,3.30294 0.87587,-3.35937 c 4.53432,-17.37735 9.1413,-24.61126 18.65975,-29.29715 4.44875,-2.19011 6.0229,-2.54144 11.36912,-2.54144 5.24699,0 6.98654,0.37326 11.27675,2.42079 6.03509,2.88027 11.01706,8.15179 13.01119,13.76642 1.18205,3.32801 1.79939,4.01466 4.20079,4.68182 1.54792,0.43006 3.26531,0.78413 3.81683,0.78655 1.92407,0.01 0.93834,1.21927 -2.15284,2.64326 -1.71281,0.78903 -2.64004,3.03409 -2.92961,3.78875 -0.28938,0.75461 -1.55628,5.08252 -1.94646,10.81912 -1.83413,26.96693 -16.86596,52.37678 -26.41418,62.42998 -9.54819,10.05322 -7.91531,8.33384 -12.72707,12.02668 -4.81175,3.69281 -15.7102,11.65343 -15.97158,12.33487 -0.57341,1.49434 0.68399,1.18037 9.10035,-2.2798 10.98865,-4.51765 20.48175,-11.15397 28.78013,-20.1169 14.61399,-15.78445 21.97069,-34.65076 24.53551,-62.92669 l 2.19708,-9.46212 6.06653,-5.13946 c 4.01823,-2.21861 7.93802,-4.26969 8.7102,-4.55959 0.77215,-0.29003 1.40389,-0.76752 1.40389,-1.06073 0,-0.29307 -4.12498,-1.56987 -9.16615,-2.83756 -5.04118,-1.26774 -9.4635,-2.52347 -9.82734,-2.79061 -0.36389,-0.26723 -1.65209,-2.47271 -2.86269,-4.90113 -5.35992,-10.75191 -17.15423,-17.60802 -29.02613,-17.41878 z"
       id="path8170" /><path
       style="fill:#053674;fill-opacity:1;stroke-width:0.802231"
       d="m 81.450223,114.03587 c 0.331001,0.007 2.102385,2.62197 3.937522,5.81616 4.366648,7.6005 10.400416,14.22139 18.294695,20.0746 10.1066,7.49364 19.78218,11.90825 40.54249,18.49679 21.82391,6.92615 31.13732,14.7062 34.90021,29.15302 2.02814,7.78646 1.50086,13.722 -2.84226,31.94516 -0.94639,3.97103 -1.82038,7.32235 -1.94135,7.44727 -0.12089,0.12478 -1.17771,-1.73208 -2.34873,-4.12553 -2.61681,-5.34862 -7.95752,-10.39497 -13.98887,-13.21803 -4.02803,-1.88543 -5.47798,-2.12147 -12.57565,-2.05418 -4.41227,0.0419 -11.85443,0.35635 -16.53821,0.69883 -10.44255,0.76357 -13.18613,-0.10533 -8.26362,-2.61666 5.48862,-2.8001 13.73384,-11.90783 12.18392,-13.45774 -0.18128,-0.18124 -5.53955,-0.47154 -11.90661,-0.64556 -16.02777,-0.43834 -24.379612,-3.2849 -31.307414,-10.67033 -2.863688,-3.05277 -6.872344,-9.09094 -6.035544,-9.09094 0.240023,0 2.200174,0.69526 4.355837,1.54496 5.933458,2.33862 15.076301,3.36942 21.959591,2.47562 3.22782,-0.41916 6.29421,-0.7714 6.81423,-0.78658 1.13004,-0.0302 3.46749,-2.2436 3.46749,-3.28411 0,-0.40527 -3.31249,-2.39934 -7.36113,-4.43266 -9.17796,-4.60944 -14.38426,-8.42816 -20.087126,-14.73007 -8.319716,-9.19357 -11.861146,-18.52122 -11.861146,-31.24316 0,-4.01768 0.270909,-7.30294 0.601675,-7.29686 z"
       id="path8168" /><path
       style="fill:#053674;fill-opacity:1;stroke-width:0.802231"
       d="m 82.194502,95.195888 -2.376921,5.155002 c -10.57602,22.93199 -5.427662,46.84512 13.434266,62.39555 2.223206,1.83286 4.945027,4.08458 6.048069,5.00296 l 2.005604,1.66868 -3.208954,-0.51391 c -4.736522,-0.76024 -14.578736,-4.93716 -19.946139,-8.46416 -2.587372,-1.70021 -4.789896,-3.09143 -4.893293,-3.09143 -0.400288,0 1.299158,9.41 2.331468,12.90933 4.617013,15.65094 16.893217,25.47127 34.890848,27.90896 3.28113,0.44426 6.25939,0.62622 6.61843,0.40425 0.35892,-0.22186 0.65337,-0.0995 0.65337,0.27259 0,1.68243 -11.82976,6.6388 -15.84564,6.6388 -1.7927,0 -1.66537,0.24301 1.52925,2.9175 6.80379,5.69634 14.91766,7.93203 26.47369,7.29528 4.34395,-0.23961 7.89854,-0.14864 7.89854,0.20044 0,1.7808 -7.33642,11.20931 -13.87145,17.82619 -7.05017,7.1384 -14.47685,13.09162 -29.394301,23.56714 -15.592483,10.94956 -24.924063,22.91878 -24.924063,31.96708 0,4.08249 2.754147,10.87179 4.669248,11.51016 0.470988,0.15714 1.27163,-1.2723 1.779981,-3.17601 2.854622,-10.69047 10.046252,-21.80199 21.061734,-32.5421 7.006921,-6.83182 9.565221,-8.57244 5.894521,-4.01117 -9.766817,12.1362 -14.131517,20.51184 -14.758236,28.31942 -0.527719,6.57458 1.207412,11.44875 5.26619,14.79431 1.609479,1.32663 3.153765,2.41293 3.433,2.41293 0.279302,0 1.080885,-4.24177 1.781524,-9.42622 2.585052,-19.12804 9.610812,-33.88618 23.504452,-49.37805 15.7796,-17.59469 18.90328,-21.37721 22.13664,-26.80115 1.89637,-3.18114 3.80966,-5.93091 4.25087,-6.1092 1.75006,-0.70659 8.25623,1.96945 11.4616,4.71311 6.24921,5.3491 9.77299,13.61592 9.78816,22.96238 -7.32524,14.45893 -6.69748,12.95099 -8.96074,16.5834 -0.30716,0.87382 -2.0723,5.81338 -2.91084,9.70783 -0.83855,3.89445 -0.80787,8.31068 1.83113,14.64614 1.70418,4.09151 4.87769,7.55099 7.32981,9.62988 2.45208,2.07889 6.49227,4.92321 10.59526,5.80841 4.10302,0.88519 9.48597,0.78613 14.87872,-3.65394 4.66237,-3.8388 7.27988,-11.2597 6.15339,-17.33357 -1.57811,-8.50868 -4.75196,-12.46603 -10.01444,-15.59039 -15.62479,-9.27653 -22.56447,4.51794 -22.19806,2.99842 l 5.6069,-9.13 c 3.23037,-6.60827 6.53302,-14.67302 9.35883,-23.83356 5.39645,-25.02079 5.83218,-27.24709 6.36144,-32.49044 1.42442,-14.11094 -6.02204,-30.04456 -17.93113,-38.36614 -6.74763,-4.71504 -10.23565,-6.13871 -29.77344,-12.14631 -14.02383,-4.31216 -18.55087,-6.32446 -27.93871,-12.41739 C 98.269149,127.84672 89.067788,116.07121 84.040247,100.8004 Z"
       id="path318-8" /></g></svg>
